<?xml version="1.0" encoding="utf-8"?>
<!-- Generator: Adobe Illustrator 24.0.2, SVG Export Plug-In . SVG Version: 6.00 Build 0)  -->
<svg version="1.1" id="Warstwa_1" xmlns="http://www.w3.org/2000/svg" xmlns:xlink="http://www.w3.org/1999/xlink" x="0px" y="0px"
	 viewBox="0 0 1920 1080" style="enable-background:new 0 0 1920 1080;" xml:space="preserve">
<g>
	<path d="M548.7,113.3h14.4l89.7,224.4h-26.1l-70.5-180.9l-72.6,180.9H459L548.7,113.3z"/>
	<path d="M730.61,215.44c-6.37,2.7-11.88,6.39-16.56,11.08s-8.35,10.22-11.03,16.61c-2.69,6.38-4.03,13.17-4.03,20.35v74.22h-22.5
		v-74.4c0-10.2,1.95-19.8,5.85-28.8s9.25-16.9,16.05-23.7c6.8-6.8,14.7-12.15,23.7-16.05s18.6-5.85,28.8-5.85v22.5
		C743.73,211.4,736.98,212.75,730.61,215.44z"/>
	<path d="M774,338.3v-150h22.5v150H774z"/>
	<path d="M893.54,188.3c10.22,0,19.84,1.9,28.86,5.7c9.02,3.8,16.93,9.05,23.75,15.75c6.82,6.7,12.17,14.6,16.08,23.7
		c3.91,9.1,5.86,18.85,5.86,29.25v74.7h-22.5v-74.52c0-7.18-1.35-13.97-4.05-20.35s-6.4-11.92-11.1-16.61
		c-4.7-4.69-10.25-8.38-16.65-11.08c-6.4-2.69-13.2-4.04-20.4-4.04c-7.2,0-13.95,1.35-20.25,4.04c-6.3,2.69-11.8,6.38-16.5,11.07
		c-4.7,4.69-8.45,10.22-11.25,16.6c-2.8,6.38-4.2,13.16-4.2,20.34c0,7.18,1.4,13.91,4.2,20.19c2.8,6.28,6.55,11.77,11.25,16.45
		c4.7,4.69,10.2,8.42,16.5,11.22c6.28,2.79,13.01,4.18,20.19,4.19c0.03,0,0.06,0.03,0.06,0.06v22.44c-10.2,0-19.85-1.95-28.95-5.85
		c-9.1-3.9-17.05-9.25-23.85-16.05c-6.8-6.8-12.15-14.75-16.05-23.85c-3.9-9.1-5.85-18.75-5.85-28.95c0-10.2,1.95-19.8,5.86-28.8
		c3.91-9,9.27-16.9,16.08-23.7c6.82-6.8,14.78-12.15,23.9-16.05S883.32,188.3,893.54,188.3z"/>
	<path d="M1066.79,338c-10.4,0-20.15-1.95-29.25-5.85c-9.1-3.9-17-9.25-23.7-16.05c-6.7-6.8-12-14.75-15.9-23.85
		c-3.9-9.1-5.85-18.75-5.85-28.95c0-10.4,1.95-20.15,5.85-29.25c3.9-9.1,9.2-17.05,15.9-23.85c6.7-6.8,14.6-12.15,23.7-16.05
		c9.1-3.9,18.85-5.85,29.25-5.85v22.5c0,0,0,0,0,0c-7.2,0-14,1.35-20.4,4.05c-6.4,2.7-11.95,6.4-16.65,11.1
		c-4.7,4.7-8.4,10.25-11.1,16.65c-2.7,6.4-4.05,13.3-4.05,20.7c0,7.2,1.35,14,4.05,20.4c2.7,6.4,6.4,11.95,11.1,16.65
		c4.7,4.7,10.25,8.4,16.65,11.1c6.4,2.7,13.2,4.05,20.4,4.05c7.4,0,14.3-1.35,20.7-4.05c6.4-2.7,11.95-6.4,16.65-11.1
		c4.7-4.7,8.4-10.25,11.1-16.65c2.7-6.4,4.05-13.2,4.05-20.4V113.6h22.5v149.7c0,10.2-1.95,19.85-5.85,28.95
		c-3.9,9.1-9.25,17.05-16.05,23.85c-6.8,6.8-14.75,12.15-23.85,16.05C1086.94,336.05,1077.19,338,1066.79,338z"/>
	<path d="M1164.99,275.7c0-10.4,1.99-20.15,5.99-29.25c3.99-9.1,9.38-17.08,16.17-23.93c6.79-6.85,14.72-12.25,23.8-16.2
		s18.82-5.92,29.19-5.92c10.38,0,20.11,2,29.19,5.99s17.07,9.43,23.95,16.32c6.89,6.89,12.32,14.87,16.32,23.95
		c3.99,9.08,5.99,18.81,5.99,29.19V351h-22.5v-75.3c0-7.2-1.35-14-4.05-20.4c-2.7-6.4-6.45-12-11.25-16.8s-10.4-8.6-16.8-11.4
		c-6.4-2.8-13.3-4.2-20.7-4.2c-7.4,0-14.3,1.4-20.7,4.2c-6.4,2.8-12,6.6-16.8,11.4s-8.55,10.4-11.25,16.8
		c-2.7,6.4-4.05,13.2-4.05,20.4H1164.99z"/>
	<path d="M1411.04,188.3c10.22,0,19.84,1.9,28.86,5.7c9.02,3.8,16.93,9.05,23.75,15.75c6.82,6.7,12.17,14.6,16.08,23.7
		c3.91,9.1,5.86,18.85,5.86,29.25v74.7h-22.5v-74.52c0-7.18-1.35-13.97-4.05-20.35s-6.4-11.92-11.1-16.61
		c-4.7-4.69-10.25-8.38-16.65-11.08c-6.4-2.69-13.2-4.04-20.4-4.04c-7.2,0-13.95,1.35-20.25,4.04c-6.3,2.69-11.8,6.38-16.5,11.07
		c-4.7,4.69-8.45,10.22-11.25,16.6c-2.8,6.38-4.2,13.16-4.2,20.34c0,7.18,1.4,13.91,4.2,20.19c2.8,6.28,6.55,11.77,11.25,16.45
		c4.7,4.69,10.2,8.42,16.5,11.22c6.28,2.79,13.01,4.18,20.19,4.19c0.03,0,0.06,0.03,0.06,0.06v22.44c-10.2,0-19.85-1.95-28.95-5.85
		c-9.1-3.9-17.05-9.25-23.85-16.05c-6.8-6.8-12.15-14.75-16.05-23.85c-3.9-9.1-5.85-18.75-5.85-28.95c0-10.2,1.95-19.8,5.86-28.8
		c3.91-9,9.27-16.9,16.08-23.7c6.82-6.8,14.78-12.15,23.9-16.05S1400.82,188.3,1411.04,188.3z"/>
	<path d="M1164.75,351v-75.78h22.5V351H1164.75z"/>
</g>
<rect x="1293" y="276" width="22.59" height="75"/>
<g>
</g>
<g>
</g>
<g>
</g>
<g>
</g>
<g>
</g>
<g>
</g>
<g>
</g>
<g>
</g>
<g>
</g>
<g>
</g>
<g>
</g>
<g>
</g>
<g>
</g>
<g>
</g>
<g>
</g>
</svg>
